<svg xmlns="http://www.w3.org/2000/svg" width="173" height="173" viewBox="0 0 14 14"><g fill="none" stroke="#7876ff" stroke-width="1"><path d="M3.509 9.328c.241.073.389.113.389.113s.148.04.394.097c1.65.383 3.22-.653 3.632-2.297c.344-1.378.592-2.782.825-4.199a1 1 0 0 0-.727-1.125L4.085.862a1 1 0 0 0-1.192.611c-.507 1.344-.993 2.683-1.382 4.05c-.465 1.63.376 3.311 1.998 3.805Z"/><path stroke-linecap="round" d="M5.475 13.462L.52 12.135m2.478.664l.9-3.358"/><path d="M1.64 6.068H8"/><path stroke-linecap="round" d="M9.933.862a.997.997 0 0 1 1.192.611c.507 1.343.993 2.683 1.382 4.05c.465 1.63-.376 3.311-1.998 3.805c-.24.073-.389.113-.389.113s-.148.04-.393.097a3 3 0 0 1-.958.067m-.226 3.857l4.954-1.327m-2.477.664l-.9-3.358m2.259-4.025h-1.844"/></g></svg>